<svg width="28" height="28" viewBox="0 0 28 28" fill="none" xmlns="http://www.w3.org/2000/svg">
<path fill-rule="evenodd" clip-rule="evenodd" d="M5 18C5.39782 18 5.77936 18.158 6.06066 18.4393C6.34196 18.7206 6.5 19.1022 6.5 19.5C6.5 19.8978 6.34196 20.2794 6.06066 20.5607C5.77936 20.842 5.39782 21 5 21C4.60218 21 4.22064 20.842 3.93934 20.5607C3.65804 20.2794 3.5 19.8978 3.5 19.5C3.5 19.1022 3.65804 18.7206 3.93934 18.4393C4.22064 18.158 4.60218 18 5 18ZM22.999 18.5C23.552 18.5 24 18.944 24 19.5C24 20.0525 23.555 20.5 22.999 20.5H9.001C8.86952 20.5004 8.73926 20.4748 8.6177 20.4247C8.49614 20.3746 8.38568 20.301 8.29266 20.208C8.19964 20.1151 8.1259 20.0047 8.07568 19.8832C8.02546 19.7617 7.99974 19.6315 8 19.5C8 18.9475 8.445 18.5 9.001 18.5H22.999ZM5 13C5.39782 13 5.77936 13.158 6.06066 13.4393C6.34196 13.7206 6.5 14.1022 6.5 14.5C6.5 14.8978 6.34196 15.2794 6.06066 15.5607C5.77936 15.842 5.39782 16 5 16C4.60218 16 4.22064 15.842 3.93934 15.5607C3.65804 15.2794 3.5 14.8978 3.5 14.5C3.5 14.1022 3.65804 13.7206 3.93934 13.4393C4.22064 13.158 4.60218 13 5 13ZM22.999 13.5C23.552 13.5 24 13.944 24 14.5C24 15.0525 23.555 15.5 22.999 15.5H9.001C8.86952 15.5004 8.73926 15.4748 8.6177 15.4247C8.49614 15.3746 8.38568 15.301 8.29266 15.208C8.19964 15.1151 8.1259 15.0047 8.07568 14.8832C8.02546 14.7617 7.99974 14.6315 8 14.5C8 13.9475 8.445 13.5 9.001 13.5H22.999ZM5 8C5.39782 8 5.77936 8.15804 6.06066 8.43934C6.34196 8.72064 6.5 9.10218 6.5 9.5C6.5 9.89782 6.34196 10.2794 6.06066 10.5607C5.77936 10.842 5.39782 11 5 11C4.60218 11 4.22064 10.842 3.93934 10.5607C3.65804 10.2794 3.5 9.89782 3.5 9.5C3.5 9.10218 3.65804 8.72064 3.93934 8.43934C4.22064 8.15804 4.60218 8 5 8ZM22.999 8.5C23.552 8.5 24 8.944 24 9.5C24 10.0525 23.555 10.5 22.999 10.5H9.001C8.86952 10.5004 8.73926 10.4748 8.6177 10.4247C8.49614 10.3746 8.38568 10.301 8.29266 10.208C8.19964 10.1151 8.1259 10.0047 8.07568 9.88323C8.02546 9.76172 7.99974 9.63148 8 9.5C8 8.9475 8.445 8.5 9.001 8.5H22.999Z" fill="white"/>
</svg>
