<svg viewBox="0 0 24 24" fill="none" xmlns="http://www.w3.org/2000/svg">
<path d="M19 10.5V10C19 6.229 19 4.343 17.828 3.172C16.656 2.001 14.771 2 11 2C7.229 2 5.343 2 4.172 3.172C3.001 4.344 3 6.229 3 10V14.5C3 17.787 3 19.431 3.908 20.538C4.07467 20.7407 4.25933 20.9253 4.462 21.092C5.57 22 7.212 22 10.5 22M7 7H15M7 11H11" stroke="currentColor" stroke-width="2" stroke-linecap="round" stroke-linejoin="round"/>
<path d="M18 18.5L16.5 17.95V15.5M12 17.5C12 18.0909 12.1164 18.6761 12.3425 19.2221C12.5687 19.768 12.9002 20.2641 13.318 20.682C13.7359 21.0998 14.232 21.4313 14.7779 21.6575C15.3239 21.8836 15.9091 22 16.5 22C17.0909 22 17.6761 21.8836 18.2221 21.6575C18.768 21.4313 19.2641 21.0998 19.682 20.682C20.0998 20.2641 20.4313 19.768 20.6575 19.2221C20.8836 18.6761 21 18.0909 21 17.5C21 16.3065 20.5259 15.1619 19.682 14.318C18.8381 13.4741 17.6935 13 16.5 13C15.3065 13 14.1619 13.4741 13.318 14.318C12.4741 15.1619 12 16.3065 12 17.5Z" stroke="currentColor" stroke-width="2" stroke-linecap="round" stroke-linejoin="round"/>
</svg>
