<svg width="100%" height="100%" viewBox="0 0 16 16" fill="none" xmlns="http://www.w3.org/2000/svg">
<path fill-rule="evenodd" clip-rule="evenodd" d="M14 2.6665V11.9998H10.6667V14.6665L6.6 11.9998H2V2.6665H14ZM12.6667 3.99985H3.33334V10.6665H6.99819L9.33334 12.1978V10.6665H12.6667V3.99985ZM8.02922 8.94985C8.24276 8.94985 8.4192 9.02016 8.55853 9.16078C8.69786 9.30141 8.76752 9.47849 8.7675 9.69203C8.7675 9.90297 8.69784 10.0788 8.55853 10.2194C8.41918 10.36 8.24274 10.4303 8.02922 10.4303C7.81047 10.4303 7.63208 10.36 7.49406 10.2194C7.35604 10.0788 7.28703 9.89907 7.28703 9.68032C7.28703 9.47198 7.35734 9.29815 7.49797 9.15882C7.63859 9.01948 7.81568 8.94983 8.02922 8.94985ZM8.31828 4.69985C8.91203 4.69985 9.36385 4.84047 9.67375 5.12172C9.94719 5.37433 10.0839 5.70245 10.0839 6.1061C10.0839 6.37953 10.0175 6.61325 9.88469 6.80725C9.76846 6.977 9.5725 7.15922 9.29681 7.35391L9.17375 7.43813C8.91333 7.61261 8.75318 7.74607 8.69328 7.8385C8.63339 7.93098 8.60344 8.0957 8.60344 8.33266V8.49282H7.45109V8.14907C7.45109 7.81832 7.48495 7.58785 7.55266 7.45766C7.59172 7.38212 7.6438 7.31506 7.70891 7.25647L7.78162 7.19588C7.81148 7.17223 7.84698 7.14513 7.88812 7.11457L8.30719 6.81457C8.48417 6.68469 8.60441 6.58265 8.66791 6.50844C8.75253 6.40948 8.79484 6.2936 8.79484 6.16078C8.79484 5.99412 8.7356 5.86195 8.61712 5.76429C8.49862 5.66664 8.33781 5.61782 8.13469 5.61782C7.80135 5.61782 7.39901 5.75193 6.92766 6.02016L6.58 5.15297C7.15812 4.85089 7.73755 4.69985 8.31828 4.69985Z" fill="currentColor"/>
</svg>
