<svg viewBox="0 0 30 36" fill="none" xmlns="http://www.w3.org/2000/svg">
<path d="M7.66667 14.3333V8.83333C7.66667 4.78167 10.9483 1.5 15 1.5C19.0517 1.5 22.3333 4.78167 22.3333 8.83333V14.3333M15 23.5C15.4862 23.5 15.9526 23.3068 16.2964 22.963C16.6402 22.6192 16.8333 22.1529 16.8333 21.6667C16.8333 21.1804 16.6402 20.7141 16.2964 20.3703C15.9526 20.0265 15.4862 19.8333 15 19.8333C14.5138 19.8333 14.0475 20.0265 13.7036 20.3703C13.3598 20.7141 13.1667 21.1804 13.1667 21.6667C13.1667 22.1529 13.3598 22.6192 13.7036 22.963C14.0475 23.3068 14.5138 23.5 15 23.5ZM15 23.5V29M5.1 14.3333H24.9C26.5133 14.3333 27.8333 15.6533 27.8333 17.2667V30.1C27.8333 32.52 25.8533 34.5 23.4333 34.5H6.56667C4.14667 34.5 2.16667 32.52 2.16667 30.1V17.2667C2.16667 15.6533 3.48667 14.3333 5.1 14.3333Z" stroke="currentColor" stroke-width="2.75" stroke-miterlimit="10" stroke-linecap="round" stroke-linejoin="round"/>
</svg>
